<svg height="512pt" viewBox="0 -46 512 511" width="512pt" xmlns="http://www.w3.org/2000/svg"><path d="m467 .5h-422c-24.8125 0-45 20.1875-45 45v240c0 24.8125 20.1875 45 45 45h46v75c0 12.402344 14.183594 19.363281 24 12l116-87h236c24.8125 0 45-20.1875 45-45v-240c0-24.8125-20.1875-45-45-45zm-271 240h-90c-8.285156 0-15-6.714844-15-15s6.714844-15 15-15h90c8.285156 0 15 6.714844 15 15s-6.714844 15-15 15zm-90-60c-8.285156 0-15-6.714844-15-15s6.714844-15 15-15h180c8.285156 0 15 6.714844 15 15s-6.714844 15-15 15zm300 60h-150c-8.285156 0-15-6.714844-15-15s6.714844-15 15-15h150c8.285156 0 15 6.714844 15 15s-6.714844 15-15 15zm0-60h-60c-8.285156 0-15-6.714844-15-15s6.714844-15 15-15h60c8.285156 0 15 6.714844 15 15s-6.714844 15-15 15zm0-60h-300c-8.285156 0-15-6.714844-15-15s6.714844-15 15-15h300c8.285156 0 15 6.714844 15 15s-6.714844 15-15 15zm0 0"/></svg>