<?xml version="1.0" encoding="iso-8859-1"?>
<!-- Generator: Adobe Illustrator 19.0.0, SVG Export Plug-In . SVG Version: 6.00 Build 0)  -->
<svg version="1.1" id="Capa_1" xmlns="http://www.w3.org/2000/svg" xmlns:xlink="http://www.w3.org/1999/xlink" x="0px" y="0px"
	 viewBox="0 0 512 512" style="enable-background:new 0 0 512 512;" xml:space="preserve">
<path style="fill:#293C7D;" d="M492.034,133.05H78.23c-21.122,0-38.239-17.117-38.239-38.239S57.108,56.571,78.23,56.571h413.803
	c11.022,0,19.966-8.932,19.966-19.966s-8.932-19.966-19.966-19.966l0,0H78.23C35.029,16.639,0,51.667,0,94.869l0,0v299.494
	c0.07,55.754,45.245,100.929,100.999,100.999h310.002c55.754-0.07,100.929-45.245,100.999-100.999V153.016
	C512,141.994,503.056,133.05,492.034,133.05z M411.001,455.429H101.232c-33.791,0-61.183-27.392-61.183-61.183V162.941
	c11.653,6.585,24.8,10.042,38.181,10.042h393.837V394.83C471.752,428.352,444.523,455.371,411.001,455.429z"/>
<path style="fill:#4899D2;" d="M375.739,359.101c-11.022,0-19.966-8.944-19.966-19.966V285.19
	c-0.012-11.022,8.921-19.978,19.943-19.99s19.978,8.921,19.99,19.943c0,0.012,0,0.023,0,0.047v54.061
	C395.635,350.238,386.726,359.101,375.739,359.101z"/>
<g>
</g>
<g>
</g>
<g>
</g>
<g>
</g>
<g>
</g>
<g>
</g>
<g>
</g>
<g>
</g>
<g>
</g>
<g>
</g>
<g>
</g>
<g>
</g>
<g>
</g>
<g>
</g>
<g>
</g>
</svg>
